<svg width="25" height="24" viewBox="0 0 25 24" fill="none" xmlns="http://www.w3.org/2000/svg">
<path d="M20.75 9.00002C20.7508 7.60971 20.4003 6.24173 19.7309 5.02316C19.0616 3.80459 18.0951 2.77495 16.9213 2.02986C15.7475 1.28478 14.4044 0.848421 13.0168 0.761324C11.6293 0.674226 10.2422 0.939212 8.98441 1.53167C7.72665 2.12413 6.63901 3.02484 5.82253 4.15014C5.00604 5.27545 4.48718 6.58885 4.31415 7.96835C4.14111 9.34785 4.31951 10.7487 4.83278 12.0408C5.34605 13.3329 6.17753 14.4743 7.25 15.3591V22.5C7.24991 22.6279 7.28253 22.7537 7.34477 22.8655C7.407 22.9772 7.49678 23.0712 7.60558 23.1385C7.71437 23.2057 7.83856 23.2441 7.96634 23.2498C8.09412 23.2555 8.22124 23.2285 8.33563 23.1713L12.5 21.0938L16.6653 23.176C16.7697 23.2259 16.8842 23.2513 17 23.25C17.1989 23.25 17.3897 23.171 17.5303 23.0303C17.671 22.8897 17.75 22.6989 17.75 22.5V15.3591C18.6884 14.5862 19.444 13.6152 19.9627 12.5158C20.4814 11.4163 20.7503 10.2157 20.75 9.00002ZM5.75 9.00002C5.75 7.66499 6.14588 6.35995 6.88758 5.24992C7.62928 4.13989 8.68349 3.27472 9.91689 2.76383C11.1503 2.25294 12.5075 2.11927 13.8169 2.37972C15.1262 2.64017 16.329 3.28304 17.273 4.22705C18.217 5.17105 18.8599 6.37378 19.1203 7.68316C19.3808 8.99253 19.2471 10.3497 18.7362 11.5831C18.2253 12.8165 17.3601 13.8707 16.2501 14.6124C15.1401 15.3541 13.835 15.75 12.5 15.75C10.7104 15.748 8.99466 15.0362 7.72922 13.7708C6.46378 12.5054 5.75199 10.7896 5.75 9.00002ZM7.25 9.00002C7.25 7.96166 7.55791 6.94663 8.13479 6.08327C8.71166 5.21991 9.5316 4.54701 10.4909 4.14965C11.4502 3.75229 12.5058 3.64832 13.5242 3.85089C14.5426 4.05347 15.4781 4.55348 16.2123 5.28771C16.9465 6.02193 17.4466 6.95739 17.6491 7.97579C17.8517 8.99419 17.7477 10.0498 17.3504 11.0091C16.953 11.9684 16.2801 12.7884 15.4167 13.3652C14.5534 13.9421 13.5384 14.25 12.5 14.25C11.1081 14.2485 9.77358 13.6949 8.78934 12.7107C7.80509 11.7264 7.25149 10.3919 7.25 9.00002Z" fill="#FFA300"/>
</svg>
